<mxfile host="Electron" agent="Mozilla/5.0 (Windows NT 10.0; Win64; x64) AppleWebKit/537.36 (KHTML, like Gecko) draw.io/24.7.17 Chrome/128.0.6613.36 Electron/32.0.1 Safari/537.36" version="24.7.17">
  <diagram name="Page-1" id="8SUfUg2jpXmxrGxlzqGW">
    <mxGraphModel dx="1434" dy="844" grid="1" gridSize="10" guides="1" tooltips="1" connect="1" arrows="1" fold="1" page="1" pageScale="1" pageWidth="827" pageHeight="1169" math="0" shadow="0">
      <root>
        <mxCell id="0" />
        <mxCell id="1" parent="0" />
        <mxCell id="aJdjlZDazT4HGVtecKOH-3" value="draw++" style="strokeWidth=1;shadow=0;dashed=0;align=center;html=1;shape=mxgraph.mockup.containers.window;align=left;verticalAlign=top;spacingLeft=8;strokeColor2=#008cff;strokeColor3=#c4c4c4;mainText=;fontSize=17;labelBackgroundColor=none;whiteSpace=wrap;fillColor=#f5f5f5;fontColor=#333333;strokeColor=#666666;container=0;" vertex="1" parent="1">
          <mxGeometry x="170" y="210" width="550" height="400" as="geometry" />
        </mxCell>
        <mxCell id="aJdjlZDazT4HGVtecKOH-4" value="" style="swimlane;shape=mxgraph.bootstrap.anchor;strokeColor=#999999;fillColor=#ffffff;fontColor=#666666;childLayout=stackLayout;horizontal=0;startSize=0;horizontalStack=1;resizeParent=1;resizeParentMax=0;resizeLast=0;collapsible=0;marginBottom=0;whiteSpace=wrap;html=1;" vertex="1" parent="1">
          <mxGeometry x="170" y="240" width="550" height="30" as="geometry" />
        </mxCell>
        <mxCell id="aJdjlZDazT4HGVtecKOH-12" value="&lt;font style=&quot;font-size: 12px;&quot; color=&quot;#000000&quot;&gt;MenuBar&lt;/font&gt;" style="text;strokeColor=inherit;align=center;verticalAlign=middle;spacingLeft=10;spacingRight=10;overflow=hidden;points=[[0,0.5],[1,0.5]];portConstraint=eastwest;rotatable=0;whiteSpace=wrap;html=1;fillColor=inherit;fontColor=inherit;fontSize=17;" vertex="1" parent="aJdjlZDazT4HGVtecKOH-4">
          <mxGeometry width="550" height="30" as="geometry" />
        </mxCell>
        <mxCell id="aJdjlZDazT4HGVtecKOH-14" value="" style="rounded=0;arcSize=9;fillColor=#FFFFFF;align=left;spacingLeft=5;strokeColor=#000000;html=1;strokeWidth=1;fontSize=12" vertex="1" parent="1">
          <mxGeometry x="180" y="305" width="280" height="210" as="geometry" />
        </mxCell>
        <mxCell id="aJdjlZDazT4HGVtecKOH-15" value="" style="rounded=0;arcSize=9;fillColor=#FFFFFF;align=left;spacingLeft=5;strokeColor=#000000;html=1;strokeWidth=1;fontSize=12" vertex="1" parent="1">
          <mxGeometry x="180" y="530" width="280" height="70" as="geometry" />
        </mxCell>
        <mxCell id="aJdjlZDazT4HGVtecKOH-16" value="" style="strokeWidth=2;html=1;shadow=0;dashed=0;shape=mxgraph.android.rrect;rSize=0;fillColor=#eeeeee;strokeColor=none;" vertex="1" parent="1">
          <mxGeometry x="180" y="275" width="280" height="30" as="geometry" />
        </mxCell>
        <mxCell id="aJdjlZDazT4HGVtecKOH-17" value="Tab 1" style="strokeWidth=1;html=1;shadow=0;dashed=0;shape=mxgraph.android.anchor;fontStyle=1;fontColor=#666666;" vertex="1" parent="aJdjlZDazT4HGVtecKOH-16">
          <mxGeometry width="70" height="30" as="geometry" />
        </mxCell>
        <mxCell id="aJdjlZDazT4HGVtecKOH-18" value="Tab 2" style="strokeWidth=1;html=1;shadow=0;dashed=0;shape=mxgraph.android.rrect;rSize=0;fontStyle=1;fillColor=#44c5f5;strokeColor=none;fontColor=#ffffff;" vertex="1" parent="aJdjlZDazT4HGVtecKOH-16">
          <mxGeometry x="70" width="70" height="30" as="geometry" />
        </mxCell>
        <mxCell id="aJdjlZDazT4HGVtecKOH-19" value="" style="strokeWidth=1;html=1;shadow=0;dashed=0;shape=mxgraph.android.rrect;rSize=0;fillColor=#33b5e5;strokeColor=none;" vertex="1" parent="aJdjlZDazT4HGVtecKOH-18">
          <mxGeometry y="27" width="70" height="3" as="geometry" />
        </mxCell>
        <mxCell id="aJdjlZDazT4HGVtecKOH-20" value="Tab 3" style="strokeWidth=1;html=1;shadow=0;dashed=0;shape=mxgraph.android.anchor;fontStyle=1;fontColor=#666666;" vertex="1" parent="aJdjlZDazT4HGVtecKOH-16">
          <mxGeometry x="140" width="70" height="30" as="geometry" />
        </mxCell>
        <mxCell id="aJdjlZDazT4HGVtecKOH-21" value="Tab 4" style="strokeWidth=1;html=1;shadow=0;dashed=0;shape=mxgraph.android.anchor;fontStyle=1;fontColor=#666666;" vertex="1" parent="aJdjlZDazT4HGVtecKOH-16">
          <mxGeometry x="210" width="70" height="30" as="geometry" />
        </mxCell>
        <mxCell id="aJdjlZDazT4HGVtecKOH-22" value="" style="shape=line;strokeColor=#666666;direction=south;" vertex="1" parent="aJdjlZDazT4HGVtecKOH-16">
          <mxGeometry x="199.027027027027" y="5" width="15.135135135135135" height="20" as="geometry" />
        </mxCell>
        <mxCell id="aJdjlZDazT4HGVtecKOH-24" value="" style="strokeWidth=1;html=1;shadow=0;dashed=0;shape=mxgraph.android.rrect;rSize=0;fillColor=#eeeeee;strokeColor=#000000;" vertex="1" parent="aJdjlZDazT4HGVtecKOH-16">
          <mxGeometry width="280" height="30" as="geometry" />
        </mxCell>
        <mxCell id="aJdjlZDazT4HGVtecKOH-25" value="Tab 1" style="strokeWidth=1;html=1;shadow=0;dashed=0;shape=mxgraph.android.anchor;fontStyle=1;fontColor=#666666;" vertex="1" parent="aJdjlZDazT4HGVtecKOH-24">
          <mxGeometry width="70" height="30" as="geometry" />
        </mxCell>
        <mxCell id="aJdjlZDazT4HGVtecKOH-26" value="Tab 2" style="strokeWidth=1;html=1;shadow=0;dashed=0;shape=mxgraph.android.rrect;rSize=0;fontStyle=1;fillColor=#44c5f5;strokeColor=none;fontColor=#ffffff;" vertex="1" parent="aJdjlZDazT4HGVtecKOH-24">
          <mxGeometry x="70" width="70" height="30" as="geometry" />
        </mxCell>
        <mxCell id="aJdjlZDazT4HGVtecKOH-27" value="" style="strokeWidth=1;html=1;shadow=0;dashed=0;shape=mxgraph.android.rrect;rSize=0;fillColor=#33b5e5;strokeColor=none;" vertex="1" parent="aJdjlZDazT4HGVtecKOH-26">
          <mxGeometry y="27" width="70" height="3" as="geometry" />
        </mxCell>
        <mxCell id="aJdjlZDazT4HGVtecKOH-28" value="Tab 3" style="strokeWidth=1;html=1;shadow=0;dashed=0;shape=mxgraph.android.anchor;fontStyle=1;fontColor=#666666;" vertex="1" parent="aJdjlZDazT4HGVtecKOH-24">
          <mxGeometry x="140" width="70" height="30" as="geometry" />
        </mxCell>
        <mxCell id="aJdjlZDazT4HGVtecKOH-29" value="Tab 4" style="strokeWidth=1;html=1;shadow=0;dashed=0;shape=mxgraph.android.anchor;fontStyle=1;fontColor=#666666;" vertex="1" parent="aJdjlZDazT4HGVtecKOH-24">
          <mxGeometry x="210" width="70" height="30" as="geometry" />
        </mxCell>
        <mxCell id="aJdjlZDazT4HGVtecKOH-30" value="" style="shape=line;strokeColor=#666666;direction=south;" vertex="1" parent="aJdjlZDazT4HGVtecKOH-24">
          <mxGeometry x="199.027027027027" y="5" width="15.135135135135135" height="20" as="geometry" />
        </mxCell>
        <mxCell id="aJdjlZDazT4HGVtecKOH-32" value="" style="shape=rect;fillColor=#ffffff;strokeColor=#000000;graientColor=none;hachureGap=4;pointerEvents=0;fontFamily=Architects Daughter;fontSource=https%3A%2F%2Ffonts.googleapis.com%2Fcss%3Ffamily%3DArchitects%2BDaughter;fontSize=20;" vertex="1" parent="1">
          <mxGeometry x="469" y="275" width="241" height="60" as="geometry" />
        </mxCell>
        <mxCell id="aJdjlZDazT4HGVtecKOH-37" value="" style="rounded=0;whiteSpace=wrap;html=1;fillColor=#FFFFFF;strokeColor=#36393d;" vertex="1" parent="1">
          <mxGeometry x="469" y="340" width="241" height="260" as="geometry" />
        </mxCell>
        <mxCell id="aJdjlZDazT4HGVtecKOH-38" value="&lt;font color=&quot;#000000&quot;&gt;TextEditor&lt;/font&gt;" style="text;html=1;align=center;verticalAlign=middle;whiteSpace=wrap;rounded=0;" vertex="1" parent="1">
          <mxGeometry x="290" y="395" width="60" height="30" as="geometry" />
        </mxCell>
        <mxCell id="aJdjlZDazT4HGVtecKOH-39" value="&lt;font color=&quot;#000000&quot;&gt;Terminal&lt;/font&gt;" style="text;html=1;align=center;verticalAlign=middle;whiteSpace=wrap;rounded=0;" vertex="1" parent="1">
          <mxGeometry x="290" y="550" width="60" height="30" as="geometry" />
        </mxCell>
        <mxCell id="aJdjlZDazT4HGVtecKOH-40" value="&lt;font color=&quot;#000000&quot;&gt;Canvas&lt;/font&gt;" style="text;html=1;align=center;verticalAlign=middle;whiteSpace=wrap;rounded=0;" vertex="1" parent="1">
          <mxGeometry x="559.5" y="455" width="60" height="30" as="geometry" />
        </mxCell>
        <mxCell id="aJdjlZDazT4HGVtecKOH-41" value="&lt;font color=&quot;#000000&quot;&gt;Toolbar&lt;/font&gt;" style="text;html=1;align=center;verticalAlign=middle;whiteSpace=wrap;rounded=0;" vertex="1" parent="1">
          <mxGeometry x="559.5" y="290" width="60" height="30" as="geometry" />
        </mxCell>
        <mxCell id="aJdjlZDazT4HGVtecKOH-44" value="&lt;font color=&quot;#000000&quot;&gt;MainFrame&lt;/font&gt;" style="text;html=1;align=center;verticalAlign=middle;whiteSpace=wrap;rounded=0;" vertex="1" parent="1">
          <mxGeometry x="415" y="210" width="60" height="30" as="geometry" />
        </mxCell>
        <mxCell id="aJdjlZDazT4HGVtecKOH-48" value="" style="verticalLabelPosition=bottom;shadow=0;dashed=0;align=center;html=1;verticalAlign=top;strokeWidth=1;shape=mxgraph.mockup.navigation.scrollBar;barPos=20;fillColor2=#000000;strokeColor2=none;direction=north;allowArrows=1;fillColor=#999999;" vertex="1" parent="1">
          <mxGeometry x="440" y="305" width="20" height="210" as="geometry" />
        </mxCell>
        <mxCell id="aJdjlZDazT4HGVtecKOH-49" value="" style="verticalLabelPosition=bottom;shadow=0;dashed=0;align=center;html=1;verticalAlign=top;strokeWidth=1;shape=mxgraph.mockup.navigation.scrollBar;barPos=20;fillColor2=#000000;strokeColor2=none;direction=north;allowArrows=1;fillColor=#999999;" vertex="1" parent="1">
          <mxGeometry x="440" y="530" width="20" height="70" as="geometry" />
        </mxCell>
      </root>
    </mxGraphModel>
  </diagram>
</mxfile>
